<svg width="512" height="512" viewBox="0 0 512 512" fill="none" xmlns="http://www.w3.org/2000/svg">
<path d="M482.343 101.657C483.462 102.776 484.887 103.538 486.439 103.846C487.991 104.155 489.6 103.997 491.061 103.391C492.523 102.786 493.773 101.76 494.652 100.445C495.531 99.1291 496 97.5823 496 96V24C496 21.8783 495.157 19.8435 493.657 18.3432C492.157 16.8429 490.122 16 488 16H416C414.418 16.0001 412.871 16.4694 411.556 17.3484C410.24 18.2275 409.215 19.4768 408.61 20.9386C408.004 22.4003 407.846 24.0087 408.154 25.5605C408.463 27.1123 409.224 28.5378 410.343 29.6567L426.937 46.2505L328.893 102.276L229.168 17.8931C227.779 16.7174 226.03 16.0507 224.21 16.003C222.39 15.9554 220.609 16.5296 219.159 17.6309L19.1594 169.631C17.4772 170.909 16.3691 172.801 16.0769 174.894C15.7847 176.986 16.3322 179.109 17.5998 180.8L41.5998 212.8C42.236 213.648 43.0344 214.361 43.9487 214.898C44.863 215.435 45.875 215.785 46.9257 215.928C47.9764 216.07 49.0449 216.002 50.0691 215.728C51.0934 215.454 52.0529 214.978 52.8918 214.33L223.772 82.2866L306.16 152H192C189.878 152 187.844 152.843 186.343 154.343C184.843 155.843 184 157.878 184 160V216.26L112.175 208.052C110.067 207.811 107.95 208.417 106.289 209.738C104.628 211.058 103.56 212.984 103.319 215.092L96.052 278.678C95.9327 279.721 96.0201 280.779 96.3094 281.789C96.5986 282.798 97.0839 283.742 97.7376 284.564C98.3914 285.386 99.2007 286.072 100.119 286.582C101.038 287.091 102.048 287.415 103.092 287.534L320.885 312.425L280 332.122V328C280 325.878 279.157 323.843 277.657 322.343C276.157 320.843 274.122 320 272 320H173.793C168.179 320.004 162.744 321.972 158.429 325.562L117.104 360H16.0002V376H120C121.872 376 123.684 375.344 125.121 374.146L168.672 337.854C170.11 336.657 171.922 336.001 173.793 336H264C263.993 342.363 261.462 348.463 256.963 352.963C252.463 357.462 246.363 359.993 240 360H184V376H197.578L260.007 417.62C263.467 419.912 267.46 421.273 271.6 421.571C275.739 421.868 279.886 421.093 283.638 419.318L285.59 418.389V418.389L285.651 418.36L417.197 355.72C422.58 353.132 428.737 352.654 434.456 354.379C440.174 356.104 445.04 359.907 448.095 365.04L452.828 372.93L254.654 479.639L121.391 456.122C120.932 456.041 120.466 456 120 456H16.0002V472H119.299L254.61 495.878C256.382 496.191 258.208 495.897 259.793 495.044L467.793 383.044C468.746 382.531 469.584 381.83 470.258 380.984C470.932 380.138 471.427 379.163 471.714 378.12C472.001 377.077 472.073 375.987 471.926 374.915C471.78 373.843 471.417 372.812 470.861 371.884L461.816 356.809C457.851 350.169 452.046 344.823 445.104 341.417L491.477 319.04C493.387 318.118 494.853 316.476 495.552 314.474C496.252 312.472 496.128 310.273 495.207 308.363L467.43 250.705C466.509 248.794 464.867 247.327 462.864 246.626C460.861 245.926 458.663 246.05 456.751 246.97L351.55 297.652L357.663 244.159C357.783 243.115 357.695 242.058 357.406 241.048C357.117 240.038 356.631 239.095 355.978 238.273C355.324 237.45 354.515 236.765 353.596 236.255C352.677 235.746 351.667 235.422 350.623 235.303L321.724 232H432C434.122 232 436.157 231.157 437.657 229.657C439.157 228.157 440 226.122 440 224V160C440 157.878 439.157 155.843 437.657 154.343C436.157 152.843 434.122 152 432 152H355.09L462.916 82.23L482.343 101.657ZM326.758 327.356L347.633 370.686L318.812 384.593L297.928 341.245L326.758 327.356ZM405.273 342.872L384.416 299.578L413.245 285.689L434.093 328.965L405.273 342.872ZM390.863 349.825L362.043 363.732L341.172 320.412L370.002 306.523L390.863 349.825ZM276.928 351.362L283.514 348.189L304.403 391.546L278.742 403.928L276.758 404.873C276.359 405.058 275.945 405.21 275.521 405.326L259.061 371.159C267.093 366.782 273.395 359.8 276.928 351.362H276.928ZM240 376C241.198 376 242.382 375.937 243.553 375.833L251.777 392.903L226.422 376H240ZM477.323 308.104L448.503 322.012L427.659 278.745L456.488 264.856L477.323 308.104ZM376 168V216H344V168H376ZM328 216H296V168H328V216ZM248 216V168H280V216H248ZM200 168H232V216H200V168ZM293.169 244.841L287.718 292.531L255.925 288.897L261.376 241.207L293.169 244.841ZM240.029 287.08L208.236 283.447L213.686 235.757L245.479 239.391L240.029 287.08ZM197.79 233.94L192.339 281.63L160.546 277.996L165.997 230.307L197.79 233.94ZM118.307 224.856L150.101 228.49L144.65 276.179L112.857 272.546L118.307 224.856ZM335.408 297.981L303.614 294.347L309.066 246.658L340.859 250.291L335.408 297.981ZM424 216H392V168H424V216ZM328.637 150.059L229.168 65.8931C227.77 64.7103 226.009 64.0429 224.178 64.0023C222.347 63.9616 220.558 64.5503 219.109 65.6699L49.5305 196.707L35.1701 177.56L223.732 34.2524L322.832 118.107C324.085 119.167 325.634 119.817 327.268 119.967C328.903 120.117 330.544 119.76 331.969 118.946L443.969 54.9458C445.037 54.3357 445.95 53.4874 446.637 52.467C447.324 51.4465 447.767 50.2814 447.93 49.0621C448.093 47.8428 447.973 46.6023 447.579 45.437C447.185 44.2717 446.527 43.213 445.657 42.3433L435.314 32H480V76.6865L469.657 66.3433C468.363 65.0489 466.664 64.2376 464.843 64.0448C463.023 63.8519 461.191 64.2892 459.655 65.2837L328.637 150.059Z" fill="#ffffff" id="id_101"></path>
<path d="M147.201 17.6007L59.2002 83.5996L68.7998 96.3994L156.801 30.4005L147.201 17.6007Z" fill="#ffffff" id="id_102"></path>
<path d="M40.5335 97.6003L19.2002 113.6L28.7998 126.4L50.1331 110.4L40.5335 97.6003Z" fill="#ffffff" id="id_103"></path>
</svg>