<svg version="1.1" id="Capa_1" xmlns="http://www.w3.org/2000/svg" xmlns:xlink="http://www.w3.org/1999/xlink" x="0px" y="0px" viewBox="0 0 480 480" style="enable-background:new 0 0 480 480;" xml:space="preserve">
<style type="text/css">
	.st0{fill:#EB3738;}
</style>
<path class="st0" d="M312,236h48v16h-48V236z M200,188h48v16h-48V188z M80,188h48v16H80V188z M200,260h48v16h-48V260z M136,92h64v16
	h-64V92z M456,420H88c-1.2,0-2.5,0.3-3.6,0.8l-32,16c-4,2-5.6,6.8-3.6,10.7c0.8,1.6,2,2.8,3.6,3.6l32,16c1.1,0.6,2.3,0.9,3.6,0.9
	h368c13.3,0,24-10.7,24-24S469.3,420,456,420z M456,452h-32v-16h32c4.4,0,8,3.6,8,8S460.4,452,456,452z M0,436v8c0,4.4,3.6,8,8,8h8
	v-16H0z M38.1,381c-6.1,1.3-12,3.8-17.2,7.3l9,13.2c3.4-2.4,7.3-4,11.4-4.9L38.1,381z M339.2,365c-2.2,3.6-5.1,6.7-8.6,9.1l9.3,13
	c5.1-3.7,9.5-8.3,12.8-13.6L339.2,365z M7.9,401.6c-3.5,5.2-5.9,11.1-7.1,17.3l15.7,3c0.8-4.1,2.4-8,4.7-11.5L7.9,401.6z M55.4,380
	H71v16H55.4V380z M149.2,380h15.6v16h-15.6V380z M86.6,380h15.6v16H86.6V380z M211.7,380h15.6v16h-15.6V380z M243,380h15.6v16H243
	V380z M180.4,380H196v16h-15.6V380z M319.3,379.2c-2.4,0.5-4.8,0.8-7.3,0.8h-6.5v16h6.5c3.7,0,7.3-0.4,10.9-1.2L319.3,379.2z
	 M117.9,380h15.6v16h-15.6V380z M274.2,380h15.6v16h-15.6V380z M200,260h48v16h-48V260z M200,188h48v16h-48V188z M312,236h48v16h-48
	V236z M80,188h48v16H80V188z M136,92h64v16h-64V92z M440,12H40C17.9,12,0,29.9,0,52v272c0,22.1,17.9,40,40,40h400
	c22.1,0,40-17.9,40-40V52C480,29.9,462.1,12,440,12z M360,348c0,2.7-0.2,5.4-0.7,8.1l-15.8-2.6c0.3-1.8,0.5-3.6,0.5-5.4v-8.9h16V348
	z M360,323.5h-16v-15.6h16V323.5z M360,292h-16v-16h16V292z M368,268h-64c-4.4,0-8-3.6-8-8v-32c0-4.4,3.6-8,8-8h24v-16h-64v8
	c0,4.4-3.6,8-8,8h-24v24h24c4.4,0,8,3.6,8,8v32c0,4.4-3.6,8-8,8h-64c-4.4,0-8-3.6-8-8v-32c0-4.4,3.6-8,8-8h24v-24h-24
	c-4.4,0-8-3.6-8-8v-32c0-4.4,3.6-8,8-8h24v-16H112v16h24c4.4,0,8,3.6,8,8v32c0,4.4-3.6,8-8,8H72c-4.4,0-8-3.6-8-8v-32
	c0-4.4,3.6-8,8-8h24v-24c0-4.4,3.6-8,8-8h56v-16h-32c-4.4,0-8-3.6-8-8V84c0-4.4,3.6-8,8-8h80c4.4,0,8,3.6,8,8v32c0,4.4-3.6,8-8,8
	h-32v16h48c4.4,0,8,3.6,8,8v24h24c4.4,0,8,3.6,8,8v8h72c4.4,0,8,3.6,8,8v24h24c4.4,0,8,3.6,8,8v32C376,264.4,372.4,268,368,268z
	 M416,324c0,4.4-3.6,8-8,8h-32v-16h24V60H48v256h280v16H40c-4.4,0-8-3.6-8-8V52c0-4.4,3.6-8,8-8h368c4.4,0,8,3.6,8,8V324z M448,228
	h-16v-80h16V228z" id="id_101" style="fill: rgb(255, 255, 255);"></path>
</svg>