<svg version="1.1" id="Layer_1_1_" xmlns="http://www.w3.org/2000/svg" xmlns:xlink="http://www.w3.org/1999/xlink" x="0px" y="0px" viewBox="0 0 64 64" style="enable-background:new 0 0 64 64;" xml:space="preserve">
<path d="M39.895,13.447L42.618,8h3.557c0.47,1.331,1.828,2.185,3.275,1.966c1.638-0.249,2.764-1.778,2.515-3.416
	s-1.778-2.764-3.416-2.515C47.419,4.206,46.545,4.994,46.186,6H42c-0.379,0-0.725,0.214-0.895,0.553L38.382,12H35v2h4
	C39.379,14,39.725,13.786,39.895,13.447z" id="id_101" style="fill: rgb(255, 255, 255);"></path>
<path d="M54.184,17c0.413,1.163,1.512,2,2.816,2c1.657,0,3-1.343,3-3s-1.343-3-3-3c-1.304,0-2.403,0.837-2.816,2H50
	c-0.334,0-0.646,0.167-0.832,0.445L47.465,18H45v2h3c0.334,0,0.646-0.167,0.832-0.445L50.535,17H54.184z" id="id_102" style="fill: rgb(255, 255, 255);"></path>
<path d="M59,29c-1.304,0-2.403,0.837-2.816,2H50v2h6.184c0.413,1.163,1.512,2,2.816,2c1.657,0,3-1.343,3-3S60.657,29,59,29z" id="id_103" style="fill: rgb(255, 255, 255);"></path>
<path d="M60,49c0-1.657-1.343-3-3-3c-1.304,0-2.403,0.837-2.816,2h-2.506l-1.749-4.372C49.776,43.249,49.409,43,49,43h-3v2h2.323
	l1.749,4.372C50.224,49.751,50.591,50,51,50h3.184c0.413,1.163,1.512,2,2.816,2C58.657,52,60,50.657,60,49z" id="id_104" style="fill: rgb(255, 255, 255);"></path>
<path d="M49,61c1.657,0,3-1.343,3-3s-1.343-3-3-3c-1.304,0-2.403,0.837-2.816,2h-3.429l-1.793-6.275C40.839,50.296,40.446,50,40,50
	h-5v2h4.246l1.793,6.275C41.161,58.704,41.554,59,42,59h4.184C46.597,60.163,47.696,61,49,61z" id="id_105" style="fill: rgb(255, 255, 255);"></path>
<path d="M16,32c0,8.822,7.178,16,16,16s16-7.178,16-16s-7.178-16-16-16S16,23.178,16,32z M39,30l3-1l1,4l-2,3l3.066,3.066
	c-2.275,3.869-6.346,6.548-11.066,6.884V43l4-1v-3l-3-3l-5,4l-4-3l-5.256,1.752C18.635,36.748,18,34.448,18,32
	c0-0.065,0.009-0.128,0.01-0.193L23,33l1-3h4l3-5l-4-2l-1.657-3.313C27.324,18.612,29.592,18,32,18c3.804,0,7.254,1.53,9.779,4H37
	l-1,4L39,30z" id="id_106" style="fill: rgb(255, 255, 255);"></path>
<path d="M20.964,59.115l1.655-2.866c1.714,0.664,3.513,1.156,5.381,1.445V61h4V51c-10.493,0-19-8.507-19-19s8.507-19,19-19V3h-4
	v3.307c-1.868,0.288-3.667,0.781-5.381,1.445l-1.655-2.866l-6.928,4l1.657,2.87c-1.449,1.169-2.769,2.489-3.938,3.938l-2.87-1.657
	l-4,6.928l2.866,1.655C7.088,24.333,6.595,26.132,6.307,28H3v8h3.307c0.288,1.868,0.781,3.667,1.445,5.381l-2.866,1.655l4,6.928
	l2.87-1.657c1.169,1.449,2.489,2.769,3.938,3.938l-1.657,2.87L20.964,59.115z" id="id_107" style="fill: rgb(255, 255, 255);"></path>
</svg>